<?xml version="1.0" encoding="UTF-8"?>
<svg id="Layer_1" xmlns="http://www.w3.org/2000/svg" version="1.1" viewBox="0 0 508.58 389.82">
  <!-- Generator: Adobe Illustrator 29.7.1, SVG Export Plug-In . SVG Version: 2.1.1 Build 8)  -->
  <rect id="Path_4" x="305.15" y=".02" width="101.71" height="101.41" fill="#fff"/>
  <rect x="101.74" y="0" width="101.7" height="101.43" fill="#fff"/>
  <path d="M229.06,174.29c-.27,6.79-.85,17.01-1.96,28.57h-23.66v-101.43h12.54c.09,4.87,3.26,20.13,8.26,35.4-2.37,2.54-3.71,5.89-3.71,9.46,0,.89.09,1.74.22,2.59-3.62,2.5-6.03,6.7-6.03,11.47,0,7.68,6.25,13.93,13.97,13.93h.36Z" fill="#fff" fill-rule="evenodd"/>
  <path d="M305.14,101.43v72.05c-2.99,1.65-5.4,3.75-7.05,6.21h-15.67l7.14,8.97c3.79,4.78,6.38,9.73,8.13,14.2h-15.85c-1.16-11.56-1.74-21.79-2.01-28.57h.36c7.72,0,14.02-6.25,14.02-13.93,0-4.78-2.41-8.97-6.07-11.47.18-.85.27-1.7.27-2.59,0-3.57-1.38-6.92-3.71-9.46,5-15.27,8.17-30.54,8.26-35.4h12.19Z" fill="#fff" fill-rule="evenodd"/>
  <rect id="Path_7" x="406.87" y="101.43" width="101.71" height="101.41" fill="#fff"/>
  <path d="M305.14,280.27v.76c0-.22.04-.49.09-.71,0,0-.04-.04-.09-.04Z" fill="#fff" fill-rule="evenodd"/>
  <path d="M406.88,202.86v101.38h-56.65c-5.85-18.17-8.75-43.04-9.55-64.29,5.8-.67,10.27-5.62,10.27-11.56,0-3.79-1.83-7.19-4.64-9.33.04-.58.09-1.12.09-1.7,0-4.2-2.23-7.86-5.54-9.96.45-1.43.94-2.95,1.56-4.55h64.46Z" fill="#fff" fill-rule="evenodd"/>
  <path d="M154.38,264.69c2.1,0,3.93-.54,5.45-1.47-2.86,2.14-5.63,4.42-7.99,7.14-8.26,9.38-9.96,21.92-4.42,32.77.22.4.4.76.63,1.12h-46.29v-101.38h60.09l4.06,11.43-6.88,4.46-.54.67c-1.38,1.7-2.37,3.3-2.99,4.78l-11.29,7.5c-1.65.71-4.69,2.46-6.47,6.34-2.05,4.38-1.7,9.82,1.03,16.16.58,1.52,1.7,3.04,3.35,3.97,1.12,3.26,4.64,4.69,5.85,5.18.54.22,3.3,1.34,6.43,1.34Z" fill="#fff" fill-rule="evenodd"/>
  <path d="M203.44,202.86v4.82c-4.37-1.79-8.88-2.63-13.48-2.63-3.66,0-7.23.54-10.67,1.65l-8.13-3.84h32.28Z" fill="#fff" fill-rule="evenodd"/>
  <rect x="0" y="101.43" width="101.74" height="101.43" fill="#fff"/>
  <path d="M266.47,85.94v-.27c0-4.02-3.21-7.23-7.23-7.23h-.22v-16.56c0-2.5-2.05-4.55-4.55-4.55s-4.55,2.05-4.55,4.55v16.56h-.22c-4.02,0-7.28,3.21-7.28,7.23,0,.09,0,.18.04.27-11.96,2.68-20.36,8.97-20.36,15.27v.22h5.71c.45-2.95,4.29-7.95,22.9-11.52-1.12.63-9.78,5.63-11.52,11.52h47.63v-.22c0-6.29-8.44-12.59-20.36-15.27ZM305.14,280.27v.76c0-.22.04-.49.09-.71,0,0-.04-.04-.09-.04ZM269.91,329.95c-.18.4-.4.85-.58,1.29h.85c-.09-.45-.18-.85-.27-1.29Z" fill="#fff" fill-rule="evenodd"/>
  <path id="Path_12" d="M266.47,85.94v-.27c0-4.02-3.21-7.23-7.23-7.23h-.22v-16.56c0-2.5-2.05-4.55-4.55-4.55s-4.55,2.05-4.55,4.55v16.56h-.22c-4.02,0-7.28,3.21-7.28,7.23,0,.09,0,.18.04.27-11.96,2.68-20.36,8.97-20.36,15.27v.22h5.71c.45-2.95,4.29-7.95,22.9-11.52-1.12.63-9.78,5.63-11.52,11.52h47.63v-.22c0-6.29-8.44-12.59-20.36-15.27Z" fill="#fff" fill-rule="evenodd"/>
  <path d="M295.58,279.64c-2.86,17.37-7.37,33.17-13.93,42.14l-.8.13c.22-.89.36-1.83.36-2.77,0-3.62-1.74-6.88-4.46-8.93.09-.54.09-1.07.09-1.61,0-1.87-.45-3.71-1.34-5.31,3.88-4.78,6.03-10.71,6.03-17.01,0-14.87-12.14-26.96-27.05-26.96-5.8,0-11.16,1.83-15.54,4.91,2.32-14.6,5-35.67,6.47-61.38.58-10.31.98-21.38,1.07-33.08h-4.87s-.4,14.11-2.37,33.08c-1.38,13.3-3.53,29.02-6.83,43.93-.45-4.91-1.56-9.69-3.35-14.11,1.87-10.18,3.21-20.45,4.15-29.82,1.56-15.58,2.01-28.66,2.19-34.64h-6.7c-4.33,0-7.86-3.53-7.86-7.86s3.53-7.86,7.86-7.86h.98c-1.83-1.43-3.04-3.66-3.04-6.21,0-3.26,1.96-6.03,4.78-7.23-5.67-16.16-9.2-33.17-9.33-37.63h5.71c-.27,1.47.31,2.41.31,2.41l10.71,34.42h5.98l-5.89-33.88c-.13-.98-.04-1.96.27-2.95h47.63c-.13,4.46-3.66,21.47-9.37,37.63,2.86,1.21,4.82,3.97,4.82,7.23,0,2.54-1.21,4.78-3.08,6.21h.98c4.37,0,7.9,3.53,7.9,7.86s-3.53,7.86-7.9,7.86h-6.65c.18,5.98.63,19.06,2.19,34.64,2.54,25.58,8.04,57.9,19.87,76.79Z" fill="#fff" fill-rule="evenodd"/>
  <path d="M232.05,308.61c0,.54.04,1.07.13,1.61-2.72,2.05-4.46,5.31-4.46,8.93,0,2.19.63,4.24,1.7,5.98h-3.3c-1.56-2.81-4.11-5.09-7.19-6.34-1.87-4.51-5.62-8.84-10.71-12.32-.4-.31-.8-.58-1.25-.85.13-.18.22-.31.36-.49,2.01-2.72,4.29-5.18,6.7-7.81,2.95-3.17,5.89-6.38,8.53-10.18h4.91c.13,5.98,2.28,11.61,5.98,16.16-.89,1.61-1.38,3.44-1.38,5.31Z" fill="#fff" fill-rule="evenodd"/>
  <path d="M221.25,337.45c.89-1.43,1.43-3.13,1.43-5,0-.4-.04-.8-.13-1.21-.27-2.46-1.56-4.6-3.39-6.12-1.29-1.03-2.86-1.7-4.55-1.96-.98-5.45-6.7-11.47-14.87-15.27.36-1.52.98-2.77,1.56-3.66.22-.36.45-.67.62-.94.22-.31.4-.54.54-.71.31-.45.67-.89.98-1.29.36-.49.71-.98,1.12-1.43v-.04c5.22-6.38,11.38-11.65,15.67-19.11,5.67-9.87,8.39-23.79,6.43-36.43v-.04c-.71-4.2-1.92-8.26-3.71-11.96-1.56-3.26-3.57-6.21-6.12-8.79-4.6-4.73-9.11-7.86-13.39-9.87-10.49-4.96-19.46-3.04-24.46-1.03l-9.51-4.51,2.95,8.44-9.69,6.29s-2.54,3.21-2.54,4.78l-13.48,8.97s-8.62,2.54-2.86,15.62c0,0,.62,2.1,2.54,1.38l5.85-3.84c.13-.49.62-1.03,1.29-1.38,1.03-.49,2.14-.31,2.46.36.36.71-.22,1.7-1.25,2.19-.36.18-.76.27-1.12.27l-5.76,4.06s-2.5,1.21,2.23,3.12c0,0,7.95,3.35,8.62-2.86l10.98-6.47s4.11,3.17,9.33,4.2c-5.27,8.71-16.47,13.17-23.13,20.71-6.65,7.59-8.26,17.68-3.62,26.7.63,1.21,1.34,2.46,2.14,3.62,1.56,2.37,3.44,4.64,5.4,6.61-5.31,3.62-8.84,8.17-9.6,12.32-4.55.67-8.08,4.55-8.08,9.29,0,1.87.54,3.66,1.52,5.09-3.75.71-6.61,3.97-6.61,7.86,0,4.42,3.62,8.04,8.04,8.04h75.31c1.65,0,3.17-.49,4.42-1.34l.04-.04c2.01-1.34,3.35-3.53,3.53-6.07v-.09c.04-.13.04-.31.04-.49,0-4.11-3.17-7.5-7.19-7.95ZM167.06,226.25s-3.08,4.06-2.59,6.52l-14.29,8.97s-5.45,2.77-4.46,5.89c0,0-3.71-5.27,3.44-8.93l12.9-7.99s.94-4.29,3.53-6.29l10.89-5.8-9.42,7.63ZM153.8,339.2h-.54c-3.48,0-6.34-2.81-6.34-6.29s2.86-6.34,6.34-6.34h.54c-2.14,1.29-3.62,3.66-3.62,6.34s1.47,5.04,3.62,6.29ZM166.47,273.88c-12.81,12.46-7.41,23.48-.98,30.36,4.29,4.6,9.02,7.32,9.02,7.32-7.37,1.92-11.56,11.83-11.56,11.83h-6.7c4.15-9.91,10.54-11.83,10.54-11.83-2.99-2.5-5.36-4.96-7.19-7.32-14.6-18.57,3.04-32.23,3.04-32.23,9.73-6.12,20.09-16.61,20.09-16.61-2.46,8.3-16.25,18.48-16.25,18.48Z" fill="#fff" fill-rule="evenodd"/>
  <path d="M269.91,329.95c-.18.4-.4.85-.58,1.29h.85c-.09-.45-.18-.85-.27-1.29ZM305.14,280.27v.76c0-.22.04-.49.09-.71,0,0-.04-.04-.09-.04Z" fill="#fff" fill-rule="evenodd"/>
  <path id="Path_16" d="M305.14,280.27v.76c0-.22.04-.49.09-.71,0,0-.04-.04-.09-.04Z" fill="#fff" fill-rule="evenodd"/>
  <path d="M364.11,341.87c.94-1.47,1.52-3.26,1.52-5.13,0-5.27-4.33-9.51-9.6-9.51h-.31c-4.82-5.58-8.48-13.75-11.29-22.99-8.04-26.12-9.29-60.85-9.46-69.69h4.29c3.39,0,6.16-2.77,6.16-6.16s-2.77-6.16-6.16-6.16h-.76c1.43-1.12,2.37-2.9,2.37-4.87,0-3.39-2.77-6.16-6.16-6.16h-.54c.49-2.37,1.21-5.22,2.32-8.35,1.92-5.4,4.96-11.65,9.73-17.63h-7.59c-1.34-4.42-6.47-7.99-13.17-9.24,1.7-1.34,2.77-3.26,2.77-5.36,0-3.97-3.66-7.19-8.17-7.19s-8.13,3.21-8.13,7.19c0,2.1,1.07,4.02,2.72,5.36-3.79.71-7.14,2.19-9.51,4.15-1.83,1.47-3.08,3.21-3.62,5.09h-7.63c4.78,5.98,7.81,12.23,9.73,17.63.63,1.74,1.12,3.39,1.52,4.96.31,1.21.58,2.37.8,3.39h-.49c-.09,0-.22,0-.31.04-3.3.13-5.89,2.81-5.89,6.12,0,1.96.94,3.75,2.41,4.87h-.76c-3.44,0-6.21,2.77-6.21,6.16s2.77,6.16,6.21,6.16h4.24c-.13,6.03-.76,23.97-3.66,43.04-.4,2.68-.85,5.4-1.34,8.12-2.81,15.13-7.19,30.04-14.06,39.42-.54.71-1.07,1.43-1.65,2.1h-1.03c-3.21,0-6.07,1.56-7.77,4.02h-.04v.04c1.7,7.77,4.87,16.65,10.8,23.88,2.5.4,4.82,1.43,6.74,2.9h70.13c4.51,0,8.17-3.62,8.17-8.13,0-4.2-3.21-7.68-7.32-8.08ZM285.09,342.9h-.58c-3.53,0-6.43-2.86-6.43-6.43,0-2.14,1.07-4.06,2.77-5.22,1.03-.71,2.28-1.16,3.66-1.16h.58c-.54.31-1.07.71-1.52,1.16-1.34,1.34-2.19,3.17-2.19,5.22,0,2.77,1.52,5.13,3.71,6.43ZM305.14,194.11c-1.34-3.26-2.5-5.49-2.5-5.49h7.37c.8,5.54.85,10.54.67,14.24-.18,4.33-.67,6.96-.67,6.96-.27-2.14-.85-4.55-1.56-6.96-.98-3.12-2.23-6.25-3.3-8.75ZM310,282.32c-.27,2.46-.58,4.78-.89,7.01-.76,5.58-1.65,10.58-2.54,14.91-2.19,10.67-4.46,17.63-5.62,20.89-.54,1.38-.85,2.1-.85,2.1h-8.93c.49-.67.94-1.34,1.38-2.1,5.58-9.11,9.29-23.84,11.74-38.79.31-1.79.58-3.53.85-5.31v-.76s.09.04.09.04c3.35-23.44,3.79-45.62,3.79-45.62h2.9c.49,18.71-.4,34.6-1.92,47.63Z" fill="#fff" fill-rule="evenodd"/>
  <path d="M233.31,331.25c-.45,2.14-1.03,4.38-1.79,6.65-.89-1.38-2.1-2.59-3.48-3.57.04-.63.09-1.25.09-1.87,0-.4,0-.8-.09-1.21h5.27Z" fill="#fff" fill-rule="evenodd"/>
  <path d="M270.18,331.25h-.85c.18-.45.4-.89.58-1.29.09.45.18.85.27,1.29Z" fill="#fff" fill-rule="evenodd"/>
  <path d="M291.92,374.28c.89-1.38,1.43-3.08,1.43-4.87,0-2.23-.8-4.2-2.1-5.8-1.7-2.01-4.2-3.3-7.05-3.3h-.36c-.67-.71-1.29-1.47-1.92-2.23-3.79-4.78-6.56-10.09-8.57-15.45-1.43-3.84-2.46-7.68-3.17-11.38h-.85c.18-.45.4-.89.58-1.29-.31-1.65-.54-3.26-.76-4.82v-.09h.85c3.26,0,5.89-2.63,5.89-5.89s-2.63-5.89-5.89-5.89h-.76c1.43-1.07,2.32-2.72,2.32-4.64,0-2.41-1.47-4.46-3.53-5.36,5-3.97,8.17-10.09,8.17-16.96,0-11.96-9.73-21.7-21.74-21.7-6.87,0-13.04,3.21-17.01,8.21v.04c-2.99,3.71-4.78,8.35-4.78,13.44,0,.27,0,.58.04.85.22,6.52,3.39,12.32,8.13,16.12-2.05.89-3.48,2.95-3.48,5.36,0,1.92.89,3.57,2.28,4.64h-.71c-3.26,0-5.94,2.63-5.94,5.89s2.68,5.89,5.94,5.89h.85v.09c-.27,1.96-.63,4.02-1.07,6.12-.98,5.09-2.54,10.45-4.91,15.62v.09c-1.43,3.13-3.17,6.25-5.27,9.15h-.04c-1.03,1.43-2.14,2.86-3.39,4.2h-1.03c-5.04,0-9.15,4.06-9.15,9.11,0,1.83.54,3.53,1.47,4.96-3.62.67-6.38,3.84-6.38,7.68,0,4.29,3.48,7.77,7.81,7.77h73.3c4.33,0,7.81-3.48,7.81-7.77,0-4.06-3.08-7.37-7.01-7.77ZM225.36,375.67h-.54c-3.39,0-6.16-2.72-6.16-6.12s2.77-6.16,6.16-6.16h.54c-2.1,1.25-3.53,3.53-3.53,6.16s1.43,4.91,3.53,6.12ZM244.6,331.25c-2.1,17.14-6.07,29.06-6.07,29.06h-5.85c5.4-9.06,8.48-21.96,9.87-29.06.63-3.13.89-5.13.89-5.13h1.74c-.18,1.79-.36,3.48-.58,5.13ZM253.57,279.95c-4.29,0-7.9-1.92-8.88-4.51-3.84,3.39-6.25,8.3-6.25,13.79,0,3.48.94,6.7,2.59,9.46-3.35-3.35-5.4-7.95-5.4-13.04,0-10.22,8.35-18.53,18.62-18.53,6.79,0,12.72,3.66,15.94,9.06-2.23-2.28-5.13-3.93-8.3-4.82.58.8.89,1.65.89,2.59,0,3.3-4.11,5.98-9.2,5.98Z" fill="#fff" fill-rule="evenodd"/>
  <path d="M270.18,331.25h-.85c.18-.45.4-.89.58-1.29.09.45.18.85.27,1.29Z" fill="#fff" fill-rule="evenodd"/>
</svg>