<svg xmlns="http://www.w3.org/2000/svg" viewBox="0 0 2000 2000"><path d="M352.16 787.99h110.65v110.32H352.16zm-221.28-.02h110.63v110.34H130.88z"/><path fill-rule="evenodd" d="M269.38 977.56c-.29 7.38-.92 18.5-2.14 31.08H241.5V898.3h13.65c.1 5.29 3.55 21.9 8.98 38.51a15.08 15.08 0 0 0-4.03 10.3c0 .97.1 1.89.24 2.82-3.93 2.72-6.56 7.28-6.56 12.48 0 8.35 6.8 15.15 15.2 15.15h.39Zm82.76-79.25v78.38c-3.25 1.8-5.88 4.08-7.67 6.75h-17.05l7.77 9.76c4.13 5.2 6.94 10.59 8.84 15.44h-17.24c-1.26-12.58-1.89-23.7-2.19-31.08h.39c8.4 0 15.25-6.8 15.25-15.15 0-5.2-2.62-9.76-6.6-12.48.19-.92.29-1.85.29-2.82 0-3.89-1.51-7.53-4.03-10.3 5.44-16.61 8.89-33.22 8.98-38.51h13.26Z"/><path d="M462.81 898.31h110.64v110.31H462.81z"/><path fill-rule="evenodd" d="M352.14 1092.85v.83c0-.24.05-.53.1-.78 0 0-.05-.05-.1-.05m110.67-84.21v110.29h-61.63c-6.36-19.77-9.52-46.82-10.39-69.93 6.31-.73 11.17-6.12 11.17-12.58 0-4.13-1.99-7.82-5.05-10.15.05-.63.1-1.21.1-1.85 0-4.57-2.43-8.55-6.02-10.83.49-1.55 1.02-3.21 1.7-4.95h70.13Zm-274.67 67.27c2.28 0 4.27-.58 5.92-1.6-3.11 2.33-6.12 4.81-8.69 7.77-8.98 10.2-10.83 23.85-4.81 35.65.24.44.44.83.68 1.21h-50.36v-110.29h65.37l4.42 12.43-7.48 4.86-.58.73c-1.51 1.85-2.57 3.59-3.25 5.2l-12.29 8.16c-1.8.78-5.1 2.67-7.04 6.9-2.23 4.76-1.85 10.68 1.12 17.58.63 1.65 1.85 3.3 3.64 4.32 1.21 3.55 5.05 5.1 6.36 5.63.58.24 3.59 1.46 6.99 1.46Zm53.37-67.27v5.25a38.5 38.5 0 0 0-14.67-2.87c-3.98 0-7.87.58-11.61 1.8l-8.84-4.18h35.11Z"/><path d="M20.2 898.31h110.68v110.34H20.2z"/><path fill-rule="evenodd" d="M310.08 881.46v-.29c0-4.37-3.5-7.87-7.87-7.87h-.24v-18.02c0-2.72-2.23-4.95-4.95-4.95s-4.95 2.23-4.95 4.95v18.02h-.24c-4.37 0-7.92 3.5-7.92 7.87 0 .1 0 .19.05.29-13.02 2.91-22.15 9.76-22.15 16.61v.24h6.22c.49-3.21 4.66-8.64 24.91-12.53-1.21.68-10.64 6.12-12.53 12.53h51.82v-.24c0-6.85-9.18-13.7-22.15-16.61m42.06 211.39v.83c0-.24.05-.53.1-.78 0 0-.05-.05-.1-.05m-38.32 54.06c-.19.44-.44.92-.63 1.41h.92z"/><path fill-rule="evenodd" d="M310.08 881.46v-.29c0-4.37-3.5-7.87-7.87-7.87h-.24v-18.02c0-2.72-2.23-4.95-4.95-4.95s-4.95 2.23-4.95 4.95v18.02h-.24c-4.37 0-7.92 3.5-7.92 7.87 0 .1 0 .19.05.29-13.02 2.91-22.15 9.76-22.15 16.61v.24h6.22c.49-3.21 4.66-8.64 24.91-12.53-1.21.68-10.64 6.12-12.53 12.53h51.82v-.24c0-6.85-9.18-13.7-22.15-16.61"/><path fill-rule="evenodd" d="M341.74 1092.17c-3.11 18.89-8.01 36.08-15.15 45.84l-.87.15c.24-.97.39-1.99.39-3.01 0-3.93-1.89-7.48-4.86-9.71.1-.58.1-1.17.1-1.75 0-2.04-.49-4.03-1.46-5.78 4.23-5.2 6.56-11.66 6.56-18.5 0-16.17-13.21-29.33-29.43-29.33-6.31 0-12.14 1.99-16.9 5.34 2.53-15.88 5.44-38.8 7.04-66.78.63-11.22 1.07-23.26 1.17-35.99h-5.29s-.44 15.35-2.57 35.99c-1.51 14.47-3.84 31.57-7.43 47.79-.49-5.34-1.7-10.54-3.64-15.35 2.04-11.07 3.5-22.24 4.52-32.44 1.7-16.95 2.19-31.18 2.38-37.69h-7.28c-4.71 0-8.55-3.84-8.55-8.55s3.84-8.55 8.55-8.55h1.07a8.53 8.53 0 0 1-3.3-6.75c0-3.55 2.14-6.56 5.2-7.87-6.17-17.58-10-36.08-10.15-40.94h6.22c-.29 1.6.34 2.62.34 2.62l11.66 37.44h6.51l-6.41-36.86c-.15-1.07-.05-2.14.29-3.21h51.82c-.15 4.86-3.98 23.36-10.2 40.94 3.11 1.31 5.24 4.32 5.24 7.87 0 2.77-1.31 5.2-3.35 6.75h1.07c4.76 0 8.6 3.84 8.6 8.55s-3.84 8.55-8.6 8.55h-7.24c.19 6.51.68 20.74 2.38 37.69 2.77 27.83 8.74 62.99 21.61 83.53Zm-69.1 31.52c0 .58.05 1.17.15 1.75-2.96 2.23-4.86 5.78-4.86 9.71 0 2.38.68 4.61 1.85 6.51h-3.59c-1.7-3.06-4.47-5.54-7.82-6.9-2.04-4.91-6.12-9.62-11.66-13.4-.44-.34-.87-.63-1.36-.92.15-.19.24-.34.39-.53 2.19-2.96 4.66-5.63 7.28-8.5 3.21-3.45 6.41-6.94 9.28-11.07h5.34c.15 6.51 2.48 12.63 6.51 17.58-.97 1.75-1.51 3.74-1.51 5.78Z"/><path fill-rule="evenodd" d="M260.88 1155.07c.97-1.55 1.55-3.4 1.55-5.44 0-.44-.05-.87-.15-1.31-.29-2.67-1.7-5-3.69-6.65-1.41-1.12-3.11-1.85-4.95-2.14-1.07-5.92-7.28-12.48-16.17-16.61.39-1.65 1.07-3.01 1.7-3.98.24-.39.49-.73.68-1.02.24-.34.44-.58.58-.78.34-.49.73-.97 1.07-1.41.39-.53.78-1.07 1.21-1.55v-.05c5.68-6.94 12.38-12.68 17.05-20.79 6.17-10.73 9.13-25.88 6.99-39.63v-.05c-.78-4.57-2.09-8.98-4.03-13.02-1.7-3.55-3.89-6.75-6.65-9.57-5-5.15-9.91-8.55-14.57-10.73-11.41-5.39-21.17-3.3-26.61-1.12l-10.34-4.9 3.21 9.18-10.54 6.85s-2.77 3.5-2.77 5.2l-14.67 9.76s-9.37 2.77-3.11 17c0 0 .68 2.28 2.77 1.51l6.36-4.18c.15-.53.68-1.12 1.41-1.51 1.12-.53 2.33-.34 2.67.39.39.78-.24 1.85-1.36 2.38-.39.19-.83.29-1.21.29l-6.26 4.42s-2.72 1.31 2.43 3.4c0 0 8.64 3.64 9.37-3.11l11.95-7.04s4.47 3.45 10.15 4.57c-5.73 9.47-17.92 14.33-25.16 22.53-7.24 8.26-8.98 19.23-3.93 29.04.68 1.31 1.46 2.67 2.33 3.93a47 47 0 0 0 5.88 7.19c-5.78 3.93-9.62 8.89-10.44 13.4-4.95.73-8.79 4.95-8.79 10.1 0 2.04.58 3.98 1.65 5.54-4.08.78-7.19 4.32-7.19 8.55 0 4.81 3.93 8.74 8.74 8.74h81.93c1.8 0 3.45-.53 4.81-1.46l.05-.05a8.63 8.63 0 0 0 3.84-6.6v-.1c.05-.15.05-.34.05-.53 0-4.47-3.45-8.16-7.82-8.64Zm-58.95-120.98s-3.35 4.42-2.82 7.09l-15.54 9.76s-5.92 3.01-4.86 6.41c0 0-4.03-5.73 3.74-9.71l14.03-8.69s1.02-4.66 3.84-6.85l11.85-6.31-10.25 8.3Zm-14.43 122.87h-.58c-3.79 0-6.9-3.06-6.9-6.85s3.11-6.9 6.9-6.9h.58c-2.33 1.41-3.93 3.98-3.93 6.9s1.6 5.49 3.93 6.85m13.8-71.05c-13.94 13.55-8.06 25.54-1.07 33.02 4.66 5 9.81 7.96 9.81 7.96-8.01 2.09-12.58 12.87-12.58 12.87h-7.28c4.52-10.78 11.46-12.87 11.46-12.87-3.25-2.72-5.83-5.39-7.82-7.96-15.88-20.2 3.3-35.06 3.3-35.06 10.59-6.65 21.85-18.07 21.85-18.07-2.67 9.03-17.68 20.11-17.68 20.11Zm112.52 61c-.19.44-.44.92-.63 1.41h.92zm38.32-54.06v.83c0-.24.05-.53.1-.78 0 0-.05-.05-.1-.05"/><path fill-rule="evenodd" d="M352.14 1092.85v.83c0-.24.05-.53.1-.78 0 0-.05-.05-.1-.05"/><path fill-rule="evenodd" d="M416.29 1159.87c1.02-1.6 1.65-3.55 1.65-5.58 0-5.73-4.71-10.34-10.44-10.34h-.34c-5.24-6.07-9.23-14.96-12.29-25.01-8.74-28.41-10.1-66.19-10.3-75.81h4.66c3.69 0 6.7-3.01 6.7-6.7s-3.01-6.7-6.7-6.7h-.83a6.75 6.75 0 0 0 2.57-5.29c0-3.69-3.01-6.7-6.7-6.7h-.58c.53-2.57 1.31-5.68 2.53-9.08 2.09-5.88 5.39-12.68 10.59-19.18h-8.26c-1.46-4.81-7.04-8.69-14.33-10.05 1.85-1.46 3.01-3.55 3.01-5.83 0-4.32-3.98-7.82-8.89-7.82s-8.84 3.5-8.84 7.82c0 2.28 1.17 4.37 2.96 5.83-4.13.78-7.77 2.38-10.34 4.52-1.99 1.6-3.35 3.5-3.93 5.54h-8.3c5.2 6.51 8.5 13.31 10.59 19.18a61 61 0 0 1 1.65 5.39c.34 1.31.63 2.57.87 3.69h-.53c-.1 0-.24 0-.34.05-3.59.15-6.41 3.06-6.41 6.65 0 2.14 1.02 4.08 2.62 5.29h-.83c-3.74 0-6.75 3.01-6.75 6.7s3.01 6.7 6.75 6.7h4.61c-.15 6.56-.83 26.08-3.98 46.82-.44 2.91-.92 5.88-1.46 8.84-3.06 16.46-7.82 32.68-15.3 42.88-.58.78-1.17 1.55-1.8 2.28h-1.12c-3.5 0-6.6 1.7-8.45 4.37h-.05v.05c1.85 8.45 5.29 18.11 11.75 25.98 2.72.44 5.24 1.55 7.33 3.16h76.29c4.91 0 8.89-3.93 8.89-8.84 0-4.57-3.5-8.35-7.96-8.79Zm-85.96 1.12h-.63c-3.84 0-6.99-3.11-6.99-6.99 0-2.33 1.17-4.42 3.01-5.68a6.93 6.93 0 0 1 3.98-1.26h.63c-.58.34-1.17.78-1.65 1.26-1.46 1.46-2.38 3.45-2.38 5.68 0 3.01 1.65 5.58 4.03 6.99m21.81-161.86c-1.46-3.55-2.72-5.97-2.72-5.97h8.01c.87 6.02.92 11.46.73 15.49-.19 4.71-.73 7.58-.73 7.58-.29-2.33-.92-4.95-1.7-7.58-1.07-3.4-2.43-6.8-3.59-9.52m5.29 95.96c-.29 2.67-.63 5.2-.97 7.62-.83 6.07-1.8 11.51-2.77 16.22-2.38 11.61-4.86 19.18-6.12 22.73-.58 1.51-.92 2.28-.92 2.28h-9.71c.53-.73 1.02-1.46 1.51-2.28 6.07-9.91 10.1-25.93 12.77-42.2.34-1.94.63-3.84.92-5.78v-.83l.1.05c3.64-25.5 4.13-49.63 4.13-49.63h3.16c.53 20.35-.44 37.64-2.09 51.82ZM274 1148.31c-.49 2.33-1.12 4.76-1.94 7.24-.97-1.51-2.28-2.82-3.79-3.89.05-.68.1-1.36.1-2.04 0-.44 0-.87-.1-1.31zm40.11 0h-.92c.19-.49.44-.97.63-1.41z"/><path fill-rule="evenodd" d="M337.76 1195.13a9.8 9.8 0 0 0 1.55-5.29c0-2.43-.87-4.57-2.28-6.31-1.85-2.19-4.57-3.59-7.67-3.59h-.39c-.73-.78-1.41-1.6-2.09-2.43-4.13-5.2-7.14-10.98-9.32-16.8a78.6 78.6 0 0 1-3.45-12.38h-.92c.19-.49.44-.97.63-1.41-.34-1.8-.58-3.55-.83-5.25v-.1h.92c3.55 0 6.41-2.87 6.41-6.41s-2.87-6.41-6.41-6.41h-.83c1.55-1.17 2.53-2.96 2.53-5.05 0-2.62-1.6-4.86-3.84-5.83a23.47 23.47 0 0 0 8.89-18.45c0-13.02-10.59-23.6-23.65-23.6-7.48 0-14.18 3.5-18.5 8.94v.05c-3.25 4.03-5.2 9.08-5.2 14.62 0 .29 0 .63.05.92.24 7.09 3.69 13.4 8.84 17.53a6.34 6.34 0 0 0-3.79 5.83c0 2.09.97 3.89 2.48 5.05h-.78c-3.55 0-6.46 2.87-6.46 6.41s2.91 6.41 6.46 6.41h.92v.1a88 88 0 0 1-1.17 6.65c-1.07 5.54-2.77 11.36-5.34 17v.1c-1.55 3.4-3.45 6.8-5.73 9.96h-.05c-1.12 1.55-2.33 3.11-3.69 4.57h-1.12c-5.49 0-9.96 4.42-9.96 9.91 0 1.99.58 3.84 1.6 5.39-3.93.73-6.94 4.18-6.94 8.35 0 4.66 3.79 8.45 8.5 8.45h79.74c4.71 0 8.5-3.79 8.5-8.45 0-4.42-3.35-8.01-7.62-8.45Zm-72.41 1.51h-.58c-3.69 0-6.7-2.96-6.7-6.65s3.01-6.7 6.7-6.7h.58c-2.28 1.36-3.84 3.84-3.84 6.7s1.55 5.34 3.84 6.65m20.93-48.33c-2.28 18.65-6.6 31.62-6.6 31.62h-6.36c5.88-9.86 9.23-23.89 10.73-31.62.68-3.4.97-5.58.97-5.58h1.89c-.19 1.94-.39 3.79-.63 5.58m9.76-55.8c-4.66 0-8.6-2.09-9.66-4.91-4.18 3.69-6.8 9.03-6.8 15.01 0 3.79 1.02 7.28 2.82 10.3-3.64-3.64-5.88-8.64-5.88-14.18 0-11.12 9.08-20.15 20.25-20.15 7.38 0 13.84 3.98 17.34 9.86-2.43-2.48-5.58-4.27-9.03-5.24.63.87.97 1.8.97 2.82 0 3.59-4.47 6.51-10 6.51Z"/><path fill-rule="evenodd" d="M314.11 1148.31h-.92c.19-.49.44-.97.63-1.41z"/><path d="M706.26 875.43c17.76-17.76 39.15-26.64 64.19-26.64 17.93 0 34.04 4.91 48.33 14.72 14.29 9.8 25.16 22.83 32.6 39.07l-36.28 10.4c-4.57-8.45-10.66-15.22-18.27-20.3-7.61-5.06-16.41-7.61-26.39-7.61-15.06 0-27.61 5.24-37.68 15.73s-15.1 23.43-15.1 38.82 5.03 28.28 15.1 38.69c10.07 10.4 22.62 15.6 37.68 15.6 19.96 0 34.59-8.88 43.9-26.64l36.78 9.89c-7.27 16.07-18.05 28.92-32.35 38.56q-21.45 14.46-48.33 14.46c-25.04 0-46.43-8.83-64.19-26.51s-26.64-39.03-26.64-64.07 8.88-46.43 26.64-64.19Zm160.34-24.86h36.79v55.56c10.15-9.81 22.66-14.72 37.55-14.72s28.33 4.87 39.33 14.59c10.99 9.72 16.49 22.62 16.49 38.69v83.47h-36.79v-74.09q0-12.675-7.74-20.55c-7.74-7.875-11.46-7.87-18.9-7.87q-13.455 0-21.69 9.51c-5.5 6.34-8.25 14.16-8.25 23.47v69.52H866.6v-177.6Zm164.67 60.89c13.53-13.36 29.77-20.04 48.71-20.04 16.41 0 30.96 5.24 43.64 15.73 12.69 10.49 20.72 23.68 24.1 39.58 1.18 5.07 1.78 9.98 1.78 14.72s-.51 8.97-1.52 13.19H1047c2.03 7.45 6 13.16 11.92 17.13s12.94 5.96 21.06 5.96c12.86 0 23.43-3.8 31.71-11.41l31.97 9.13c-5.24 10.5-13.95 18.91-26.13 25.24-12.18 6.35-24.7 9.51-37.55 9.51-19.28 0-35.65-6.8-49.09-20.42-13.45-13.62-20.17-29.89-20.17-48.84s6.85-35.94 20.55-49.48m15.73 35.26h65.21c-2.03-6.43-5.92-11.84-11.67-16.24s-12.69-6.59-20.81-6.59-15.1 2.19-20.93 6.59-9.77 9.81-11.8 16.24m128.12-44.14q15.48-11.16 40.59-11.16c19.11 0 36.37 4.06 51.76 12.18v34.76c-20.64-10.32-37.89-15.47-51.76-15.47-5.92 0-10.4.97-13.45 2.91-3.04 1.95-4.56 4.36-4.56 7.24q0 2.535 1.65 4.44c1.1 1.26 2.88 2.36 5.33 3.3q3.675 1.395 7.23 2.16c3.555.765 5.62 1.23 9.77 2.16 4.14.93 7.65 1.74 10.53 2.41 28.08 7.44 42.12 21.4 42.12 41.86 0 7.45-1.74 13.95-5.2 19.53-3.47 5.58-8.03 9.86-13.7 12.82a71.4 71.4 0 0 1-17.76 6.47c-6.18 1.35-12.65 2.03-19.41 2.03-18.26 0-36.28-4.99-54.04-14.97v-36.54c6.6 4.57 15.01 8.97 25.24 13.2s19.83 6.34 28.8 6.34q18.27 0 18.27-9.63c0-3.56-2.37-6.39-7.1-8.5q-7.11-3.18-23.85-6.72c-15.73-3.39-27.32-8.2-34.76-14.47-7.45-6.25-11.17-14.8-11.17-25.62 0-13.02 5.16-23.25 15.48-30.7Zm122.29 0q15.48-11.16 40.59-11.16c19.11 0 36.37 4.06 51.76 12.18v34.76c-20.64-10.32-37.89-15.47-51.76-15.47-5.92 0-10.4.97-13.45 2.91-3.04 1.95-4.56 4.36-4.56 7.24q0 2.535 1.65 4.44c1.1 1.26 2.88 2.36 5.33 3.3q3.675 1.395 7.23 2.16c3.555.765 5.62 1.23 9.77 2.16 4.14.93 7.65 1.74 10.53 2.41 28.08 7.44 42.12 21.4 42.12 41.86 0 7.45-1.74 13.95-5.2 19.53-3.47 5.58-8.03 9.86-13.7 12.82a71.4 71.4 0 0 1-17.76 6.47c-6.18 1.35-12.65 2.03-19.41 2.03-18.26 0-36.28-4.99-54.04-14.97v-36.54c6.6 4.57 15.01 8.97 25.24 13.2s19.83 6.34 28.8 6.34q18.27 0 18.27-9.63c0-3.56-2.37-6.39-7.1-8.5q-7.11-3.18-23.85-6.72c-15.73-3.39-27.32-8.2-34.76-14.47-7.45-6.25-11.17-14.8-11.17-25.62 0-13.02 5.16-23.25 15.48-30.7Zm108.08-52.01h39.33l26.64 141.57 28.41-141.57h56.33l27.4 141.06 26.64-141.06h39.33l-37.3 177.6h-56.33l-27.91-149.44-28.92 149.44h-56.32zm264.63-4.82c4.4-4.22 9.73-6.35 15.98-6.35s11.58 2.13 15.98 6.35c4.4 4.23 6.6 9.38 6.6 15.48s-2.2 11.16-6.6 15.21c-4.4 4.23-9.73 6.35-15.98 6.35s-11.58-2.07-15.98-6.22c-4.4-4.14-6.59-9.26-6.59-15.34s2.19-11.25 6.59-15.48m34 47.95v134.47h-36.79V893.7zm17.75 96.41 64.95-62.16h-64.7V893.7h109.86v35.51l-66.73 64.96h66.47v34.25h-109.86v-38.31Zm138.79-78.65c13.53-13.36 29.77-20.04 48.71-20.04 16.41 0 30.96 5.24 43.64 15.73 12.69 10.49 20.72 23.68 24.1 39.58 1.18 5.07 1.78 9.98 1.78 14.72s-.51 8.97-1.52 13.19h-100.98c2.03 7.45 6 13.16 11.92 17.13s12.94 5.96 21.06 5.96c12.86 0 23.43-3.8 31.71-11.41l31.97 9.13c-5.24 10.5-13.95 18.91-26.13 25.24-12.18 6.35-24.7 9.51-37.55 9.51-19.28 0-35.65-6.8-49.09-20.42-13.45-13.62-20.17-29.89-20.17-48.84s6.85-35.94 20.55-49.48m15.73 35.26h65.21c-2.03-6.43-5.92-11.84-11.67-16.24s-12.69-6.59-20.81-6.59-15.1 2.19-20.93 6.59-9.77 9.81-11.8 16.24M723.36 1109.33h-14.82v41.62h-9.14v-41.62h-14.81v-7.51h38.77zm68.26-7.51v49.13h-9.18v-21.47h-23.07v21.47h-9.18v-49.13h9.18v21.14h23.07v-21.14zm40.5 49.13h-9.18v-49.13h9.18zm72.77-49.13v49.13h-4.69c-.72 0-1.33-.12-1.82-.36-.48-.24-.96-.64-1.41-1.21l-25.65-32.75c.14 1.5.21 2.88.21 4.15v30.17h-8.06v-49.13h4.79c.38 0 .72.03 1 .05.29.04.53.11.75.2.21.11.42.25.63.45.2.19.42.44.68.76l25.75 32.89c-.07-.78-.13-1.57-.17-2.34s-.07-1.49-.07-2.15v-29.86zm40.47 20.6h2.14c.86 0 1.57-.12 2.14-.36.56-.24 1.05-.62 1.46-1.14l13.56-17.16c.56-.72 1.16-1.22 1.79-1.51.62-.28 1.41-.42 2.36-.42h7.88l-16.54 20.43c-.98 1.25-1.98 2.12-3.03 2.64.75.28 1.42.66 2.02 1.14q.9.735 1.71 1.92l17.06 23h-8.06c-1.09 0-1.9-.16-2.43-.46s-.98-.74-1.34-1.34l-13.9-18.14q-.645-.915-1.5-1.29c-.56-.25-1.38-.37-2.44-.37h-2.89v21.61h-9.14v-49.13h9.14v20.6Zm120.88-11.65c-.27.46-.56.81-.87 1.04-.31.21-.68.32-1.13.32-.48 0-1-.17-1.55-.53-.56-.35-1.22-.74-1.99-1.17-.77-.42-1.67-.82-2.7-1.17-1.03-.36-2.25-.53-3.65-.53q-1.905 0-3.33.45c-.95.32-1.75.74-2.4 1.27-.64.54-1.13 1.21-1.45 1.96-.31.76-.47 1.59-.47 2.5 0 1.15.32 2.11.97 2.88.64.77 1.5 1.43 2.56 1.98 1.07.54 2.28 1.04 3.64 1.46s2.75.89 4.18 1.38c1.43.48 2.82 1.05 4.18 1.7 1.35.64 2.57 1.46 3.63 2.44 1.07.98 1.92 2.19 2.57 3.62.64 1.42.97 3.16.97 5.19 0 2.23-.38 4.3-1.14 6.24s-1.86 3.62-3.32 5.07c-1.47 1.43-3.24 2.56-5.36 3.4-2.1.82-4.52 1.23-7.23 1.23-1.57 0-3.11-.16-4.63-.46-1.51-.31-2.97-.73-4.37-1.3-1.39-.57-2.7-1.25-3.92-2.04-1.22-.78-2.31-1.67-3.26-2.64l2.68-4.39c.23-.32.52-.58.88-.8.36-.21.75-.32 1.15-.32.56 0 1.18.23 1.84.69s1.43.98 2.34 1.55c.9.56 1.96 1.08 3.18 1.54 1.21.46 2.67.7 4.37.7 2.6 0 4.62-.62 6.05-1.86 1.43-1.23 2.14-3 2.14-5.31 0-1.3-.33-2.35-.97-3.16-.65-.82-1.51-1.51-2.57-2.06-1.06-.56-2.28-1.04-3.64-1.42s-2.74-.8-4.14-1.25c-1.41-.45-2.79-1-4.15-1.63-1.36-.64-2.57-1.46-3.64-2.48-1.06-1.02-1.92-2.3-2.56-3.82-.65-1.53-.97-3.41-.97-5.65 0-1.79.35-3.54 1.07-5.24.71-1.7 1.75-3.2 3.11-4.51s3.04-2.36 5.03-3.16 4.28-1.19 6.86-1.19c2.9 0 5.57.45 8.02 1.37 2.44.9 4.53 2.18 6.25 3.8l-2.28 4.33Zm84.76-8.95v49.13h-8.05v-31.73q0-1.905.21-4.11l-14.85 27.9c-.7 1.34-1.78 2-3.23 2h-1.29c-1.45 0-2.52-.66-3.23-2l-15.02-27.99c.07.74.13 1.47.17 2.2s.07 1.39.07 2v31.73h-8.06v-49.13h6.9c.4 0 .76.01 1.05.04.3.03.56.08.8.17.24.08.45.24.64.44s.38.48.56.81l14.71 27.29c.38.73.74 1.47 1.08 2.24.33.77.65 1.57.97 2.38.31-.84.64-1.65.98-2.43s.7-1.53 1.09-2.26l14.51-27.22c.18-.33.38-.61.58-.81.21-.2.42-.36.66-.44.24-.09.5-.15.8-.17.3-.03.65-.04 1.06-.04zm73.43 49.13h-7.07c-.79 0-1.44-.2-1.94-.6s-.87-.89-1.12-1.47l-3.67-10.02h-20.35l-3.67 10.02c-.18.52-.53 1-1.05 1.42-.52.44-1.17.65-1.94.65h-7.13l19.33-49.13h9.31zm-16.14-18.55-5.98-16.34c-.3-.73-.6-1.59-.92-2.59s-.64-2.07-.96-3.23c-.29 1.15-.6 2.24-.92 3.25s-.62 1.88-.92 2.63l-5.95 16.27h15.63Zm79.97 18.55h-8.25c-1.57 0-2.7-.61-3.4-1.83l-10.33-15.74c-.38-.58-.81-1-1.27-1.25s-1.15-.37-2.06-.37h-3.9v19.19h-9.14v-49.13h14.98c3.33 0 6.19.35 8.58 1.04q3.585 1.035 5.88 2.91c1.53 1.25 2.65 2.73 3.38 4.47.72 1.73 1.09 3.64 1.09 5.72 0 1.66-.25 3.23-.73 4.68-.48 1.47-1.19 2.81-2.1 4.02-.92 1.19-2.05 2.24-3.4 3.16-1.35.9-2.89 1.62-4.61 2.14.59.35 1.13.74 1.63 1.21q.75.69 1.35 1.65l12.3 18.14Zm-23.51-25.74c1.72 0 3.22-.23 4.5-.65 1.28-.44 2.34-1.02 3.16-1.79.83-.76 1.45-1.66 1.85-2.69.41-1.05.62-2.19.62-3.44 0-2.48-.82-4.41-2.47-5.73-1.64-1.34-4.15-2-7.53-2h-5.84v16.31h5.71Zm82.26-15.88h-14.82v41.62h-9.14v-41.62h-14.81v-7.51h38.77zm20.82 49.94c-.4-.33-.61-.76-.61-1.26 0-.17.06-.38.19-.61s.28-.42.46-.61c.25-.27.56-.6.92-1s.72-.85 1.08-1.37c.36-.5.7-1.06 1-1.66s.54-1.23.7-1.92c-.72 0-1.38-.12-1.97-.38-.58-.27-1.09-.62-1.51-1.08q-.63-.675-.99-1.59c-.36-.915-.36-1.27-.36-2 0-.64.12-1.23.36-1.79.24-.54.57-1.04 1-1.46.43-.41.95-.74 1.57-.98a5.4 5.4 0 0 1 2-.36c.86 0 1.61.16 2.26.46.64.31 1.18.72 1.6 1.26.42.53.74 1.14.95 1.83q.33 1.035.33 2.19c0 1.09-.17 2.23-.49 3.42-.33 1.21-.81 2.4-1.45 3.61-.64 1.19-1.42 2.36-2.36 3.5a22 22 0 0 1-3.21 3.12l-1.46-1.33Zm90.62-57.45c3.28 0 6.12.38 8.53 1.15 2.4.77 4.38 1.84 5.95 3.23 1.56 1.39 2.72 3.04 3.48 4.96s1.13 4.03 1.13 6.32-.4 4.57-1.19 6.54a13.5 13.5 0 0 1-3.57 5.11c-1.59 1.43-3.57 2.55-5.96 3.33-2.39.8-5.18 1.19-8.37 1.19h-6.83v17.29h-9.14v-49.13h15.97Zm0 24.7c1.67 0 3.13-.2 4.38-.62s2.28-1.02 3.11-1.8c.82-.78 1.44-1.73 1.85-2.85.4-1.11.61-2.36.61-3.76 0-1.31-.21-2.5-.61-3.56a6.9 6.9 0 0 0-1.84-2.72c-.82-.76-1.84-1.33-3.09-1.71q-1.86-.6-4.41-.6h-6.83v17.62zm75.25 16.89v7.54h-28.78v-49.13h9.14v41.59zm69 7.54h-7.07c-.79 0-1.44-.2-1.94-.6s-.87-.89-1.12-1.47l-3.67-10.02h-20.35l-3.67 10.02c-.18.52-.53 1-1.05 1.42-.52.44-1.17.65-1.94.65h-7.13l19.33-49.13h9.31zm-16.13-18.55-5.98-16.34c-.3-.73-.6-1.59-.92-2.59s-.64-2.07-.96-3.23c-.29 1.15-.6 2.24-.92 3.25s-.62 1.88-.92 2.63l-5.95 16.27h15.63Zm57.62-.48v19.03h-9.1v-19.03l-17.91-30.1h8.06c.79 0 1.42.2 1.88.58s.86.86 1.17 1.46l8.97 16.4q.78 1.47 1.38 2.76c.39.86.75 1.71 1.07 2.57.29-.86.64-1.71 1.02-2.57q.57-1.29 1.32-2.76l8.94-16.4c.25-.5.62-.97 1.12-1.39.5-.44 1.13-.65 1.9-.65h8.08zm142.35-30.1-15.26 49.13h-8.25l-10.74-33.56c-.29-.82-.56-1.82-.82-3-.13.57-.27 1.1-.4 1.61-.14.49-.29.96-.44 1.39l-10.84 33.56h-8.29l-15.22-49.13h7.64c.79 0 1.45.19 1.99.56.53.38.88.89 1.07 1.51l8.35 29.4c.19.72.36 1.51.53 2.36s.35 1.74.52 2.67c.18-.96.38-1.84.6-2.69.21-.84.44-1.62.7-2.34l9.65-29.4c.18-.52.54-1 1.07-1.42.53-.44 1.18-.65 1.95-.65h2.69c.79 0 1.44.2 1.94.58s.87.88 1.12 1.49l9.62 29.4q.705 2.115 1.29 4.86c.3-1.79.62-3.41.99-4.86l8.35-29.4c.14-.56.48-1.05 1.04-1.46.56-.4 1.22-.61 1.99-.61h7.17Zm35.62 49.13h-9.18v-49.13h9.18zm57.52-40.18c-.27.46-.56.81-.87 1.04-.31.21-.68.32-1.13.32-.48 0-1-.17-1.55-.53-.56-.35-1.22-.74-1.99-1.17-.77-.42-1.67-.82-2.7-1.17-1.03-.36-2.25-.53-3.65-.53q-1.905 0-3.33.45c-.95.32-1.75.74-2.4 1.27-.64.54-1.13 1.21-1.45 1.96-.31.76-.47 1.59-.47 2.5 0 1.15.32 2.11.97 2.88.64.77 1.5 1.43 2.56 1.98 1.07.54 2.28 1.04 3.64 1.46s2.75.89 4.18 1.38c1.43.48 2.82 1.05 4.18 1.7 1.35.64 2.57 1.46 3.63 2.44 1.07.98 1.92 2.19 2.57 3.62.64 1.42.97 3.16.97 5.19 0 2.23-.38 4.3-1.14 6.24s-1.86 3.62-3.32 5.07c-1.47 1.43-3.24 2.56-5.36 3.4-2.1.82-4.52 1.23-7.23 1.23-1.57 0-3.11-.16-4.63-.46-1.51-.31-2.97-.73-4.37-1.3-1.39-.57-2.7-1.25-3.92-2.04-1.22-.78-2.31-1.67-3.26-2.64l2.68-4.39c.23-.32.52-.58.88-.8s.75-.32 1.15-.32c.56 0 1.18.23 1.84.69s1.43.98 2.34 1.55c.9.56 1.96 1.08 3.18 1.54 1.21.46 2.67.7 4.37.7 2.6 0 4.62-.62 6.05-1.86 1.43-1.23 2.14-3 2.14-5.31 0-1.3-.33-2.35-.97-3.16-.65-.82-1.51-1.51-2.57-2.06-1.06-.56-2.28-1.04-3.64-1.42s-2.74-.8-4.14-1.25c-1.41-.45-2.79-1-4.15-1.63s-2.57-1.46-3.64-2.48c-1.06-1.02-1.92-2.3-2.56-3.82-.65-1.53-.97-3.41-.97-5.65 0-1.79.35-3.54 1.07-5.24.71-1.7 1.75-3.2 3.11-4.51s3.04-2.36 5.03-3.16 4.28-1.19 6.86-1.19c2.9 0 5.57.45 8.02 1.37 2.44.9 4.53 2.18 6.25 3.8l-2.28 4.33Zm40.66-1.68v13.63h17.19v7.03h-17.19v13.9h21.81v7.3h-30.99v-49.13h30.99v7.27zm49.13 37.24c0-.7.13-1.37.39-2 .26-.64.62-1.18 1.09-1.63a5.4 5.4 0 0 1 1.65-1.09 5.2 5.2 0 0 1 4.05 0c.63.27 1.18.64 1.65 1.09s.83 1 1.1 1.63a5.14 5.14 0 0 1 0 4.02c-.27.62-.64 1.17-1.1 1.62s-1.02.81-1.65 1.06c-.64.27-1.31.4-2.01.4s-1.4-.13-2.04-.4a5.1 5.1 0 0 1-1.65-1.06c-.46-.45-.83-1-1.09-1.62s-.39-1.3-.39-2.02m9.21-44.51v19.44c0 2.06-.11 4.07-.31 6.07-.21 1.98-.46 4.07-.78 6.29h-5.71c-.32-2.22-.58-4.31-.78-6.29-.21-1.99-.31-4.01-.31-6.07v-19.44h7.88Z"/></svg>