<svg xmlns="http://www.w3.org/2000/svg" viewBox="0 0 2000 2000"><path d="M1059.52 622.73h119.03v118.68h-119.03zm-238.04-.02h119.01v118.7H821.48z"/><path fill-rule="evenodd" d="M970.48 826.67c-.31 7.94-.99 19.9-2.3 33.44h-27.69v-118.7h14.68c.1 5.69 3.81 23.56 9.66 41.43a16.2 16.2 0 0 0-4.34 11.08c0 1.04.1 2.04.26 3.03-4.23 2.93-7.05 7.84-7.05 13.43 0 8.99 7.31 16.3 16.35 16.3h.42Zm89.02-85.26v84.32c-3.5 1.93-6.32 4.39-8.25 7.26h-18.34l8.36 10.5c4.44 5.59 7.47 11.39 9.51 16.61h-18.55a562 562 0 0 1-2.35-33.44h.42c9.04 0 16.4-7.31 16.4-16.3 0-5.59-2.82-10.5-7.11-13.43.21-.99.31-1.99.31-3.03 0-4.18-1.62-8.1-4.34-11.08 5.85-17.87 9.56-35.73 9.66-41.43h14.26Z"/><path d="M1178.56 741.41h119.03v118.67h-119.03z"/><path fill-rule="evenodd" d="M1059.5 950.69v.89c0-.26.05-.57.1-.84 0 0-.05-.05-.1-.05m119.07-90.59v118.65h-66.3c-6.84-21.26-10.24-50.36-11.18-75.23 6.79-.78 12.02-6.58 12.02-13.53 0-4.44-2.14-8.41-5.43-10.92.05-.68.1-1.31.1-1.99 0-4.91-2.61-9.19-6.48-11.65.52-1.67 1.1-3.45 1.83-5.33zm-295.49 72.36c2.46 0 4.6-.63 6.37-1.72-3.34 2.51-6.58 5.17-9.35 8.36-9.66 10.97-11.65 25.65-5.17 38.35.26.47.47.89.73 1.31h-54.18V860.11h70.32l4.75 13.37-8.05 5.22-.63.78c-1.62 1.99-2.77 3.87-3.5 5.59l-13.22 8.78c-1.93.84-5.49 2.87-7.58 7.42-2.4 5.12-1.99 11.49 1.2 18.91.68 1.78 1.99 3.55 3.92 4.65 1.31 3.81 5.43 5.49 6.84 6.06.63.26 3.87 1.57 7.52 1.57Zm57.41-72.36v5.64c-5.12-2.09-10.4-3.08-15.78-3.08-4.28 0-8.46.63-12.49 1.93l-9.51-4.49h37.77Z"/><path d="M702.42 741.41h119.06v118.7H702.42z"/><path fill-rule="evenodd" d="M1014.26 723.28v-.31c0-4.7-3.76-8.46-8.46-8.46h-.26v-19.38c0-2.93-2.4-5.33-5.33-5.33s-5.33 2.4-5.33 5.33v19.38h-.26c-4.7 0-8.52 3.76-8.52 8.46 0 .1 0 .21.05.31-14 3.13-23.82 10.5-23.82 17.87v.26h6.69c.52-3.45 5.02-9.3 26.8-13.48-1.31.73-11.44 6.58-13.48 13.48h55.74v-.26c0-7.37-9.87-14.73-23.82-17.87m45.24 227.41v.89c0-.26.05-.57.1-.84 0 0-.05-.05-.1-.05m-41.22 58.15c-.21.47-.47.99-.68 1.51h.99c-.1-.52-.21-.99-.31-1.51"/><path fill-rule="evenodd" d="M1014.26 723.28v-.31c0-4.7-3.76-8.46-8.46-8.46h-.26v-19.38c0-2.93-2.4-5.33-5.33-5.33s-5.33 2.4-5.33 5.33v19.38h-.26c-4.7 0-8.52 3.76-8.52 8.46 0 .1 0 .21.05.31-14 3.13-23.82 10.5-23.82 17.87v.26h6.69c.52-3.45 5.02-9.3 26.8-13.48-1.31.73-11.44 6.58-13.48 13.48h55.74v-.26c0-7.37-9.87-14.73-23.82-17.87m34.06 226.68c-3.34 20.32-8.62 38.82-16.3 49.32l-.94.16c.26-1.04.42-2.14.42-3.24 0-4.23-2.04-8.05-5.22-10.45.1-.63.1-1.25.1-1.88 0-2.19-.52-4.34-1.57-6.22 4.55-5.59 7.05-12.54 7.05-19.9 0-17.4-14.21-31.56-31.66-31.56-6.79 0-13.06 2.14-18.18 5.75 2.72-17.08 5.85-41.74 7.58-71.84.68-12.07 1.15-25.02 1.25-38.71h-5.69s-.47 16.51-2.77 38.71c-1.62 15.57-4.13 33.96-7.99 51.41-.52-5.75-1.83-11.34-3.92-16.51 2.19-11.91 3.76-23.93 4.86-34.9 1.83-18.23 2.35-33.54 2.56-40.54h-7.84c-5.07 0-9.19-4.13-9.19-9.19s4.13-9.19 9.19-9.19h1.15a9.18 9.18 0 0 1-3.55-7.26c0-3.81 2.3-7.05 5.59-8.46-6.64-18.91-10.76-38.82-10.92-44.04h6.69c-.31 1.72.37 2.82.37 2.82l12.54 40.28h7l-6.9-39.65c-.16-1.15-.05-2.3.31-3.45h55.74c-.16 5.22-4.28 25.13-10.97 44.04 3.34 1.41 5.64 4.65 5.64 8.46 0 2.98-1.41 5.59-3.6 7.26h1.15c5.12 0 9.25 4.13 9.25 9.19s-4.13 9.19-9.25 9.19h-7.78c.21 7 .73 22.31 2.56 40.54 2.98 29.94 9.4 67.76 23.25 89.86Zm-74.34 33.91c0 .63.05 1.25.16 1.88-3.19 2.4-5.22 6.22-5.22 10.45 0 2.56.73 4.96 1.99 7h-3.87a16.96 16.96 0 0 0-8.41-7.42c-2.19-5.28-6.58-10.34-12.54-14.42-.47-.37-.94-.68-1.46-.99.16-.21.26-.37.42-.57 2.35-3.19 5.02-6.06 7.84-9.14 3.45-3.71 6.9-7.47 9.98-11.91h5.75c.16 7 2.66 13.58 7 18.91a12.9 12.9 0 0 0-1.62 6.22Z"/><path fill-rule="evenodd" d="M961.34 1017.62c1.04-1.67 1.67-3.66 1.67-5.85 0-.47-.05-.94-.16-1.41-.31-2.87-1.83-5.38-3.97-7.16-1.52-1.2-3.34-1.99-5.33-2.3-1.15-6.37-7.84-13.43-17.4-17.87a13.6 13.6 0 0 1 1.83-4.28c.26-.42.52-.78.73-1.1.26-.37.47-.63.63-.84.37-.52.78-1.04 1.15-1.51.42-.57.84-1.15 1.31-1.67v-.05c6.11-7.47 13.32-13.64 18.34-22.36 6.64-11.55 9.82-27.85 7.52-42.63v-.05c-.84-4.91-2.25-9.66-4.34-14-1.83-3.81-4.18-7.26-7.16-10.29-5.38-5.54-10.66-9.19-15.67-11.55-12.28-5.8-22.78-3.55-28.63-1.2l-11.13-5.28 3.45 9.87-11.34 7.37s-2.98 3.76-2.98 5.59l-15.78 10.5s-10.08 2.98-3.34 18.29c0 0 .73 2.46 2.98 1.62l6.84-4.49c.16-.57.73-1.2 1.51-1.62 1.2-.57 2.51-.37 2.87.42.42.84-.26 1.99-1.46 2.56-.42.21-.89.31-1.31.31l-6.74 4.75s-2.93 1.41 2.61 3.66c0 0 9.3 3.92 10.08-3.34l12.85-7.58s4.81 3.71 10.92 4.91c-6.17 10.19-19.28 15.41-27.06 24.24-7.78 8.88-9.66 20.69-4.23 31.24.73 1.41 1.57 2.87 2.51 4.23a50.4 50.4 0 0 0 6.32 7.73c-6.22 4.23-10.34 9.56-11.23 14.42-5.33.78-9.46 5.33-9.46 10.87 0 2.19.63 4.28 1.78 5.96-4.39.84-7.73 4.65-7.73 9.19 0 5.17 4.23 9.4 9.4 9.4h88.14c1.93 0 3.71-.57 5.17-1.57l.05-.05a9.29 9.29 0 0 0 4.13-7.11v-.1c.05-.16.05-.37.05-.57 0-4.81-3.71-8.78-8.41-9.3Zm-63.43-130.14s-3.6 4.75-3.03 7.63l-16.72 10.5s-6.37 3.24-5.22 6.9c0 0-4.34-6.16 4.02-10.45l15.1-9.35s1.1-5.02 4.13-7.37l12.75-6.79-11.02 8.93Zm-15.51 132.18h-.63c-4.08 0-7.42-3.29-7.42-7.37s3.34-7.42 7.42-7.42h.63c-2.51 1.51-4.23 4.28-4.23 7.42s1.72 5.9 4.23 7.37m14.83-76.44c-14.99 14.58-8.67 27.48-1.15 35.53 5.02 5.38 10.55 8.57 10.55 8.57-8.62 2.25-13.53 13.84-13.53 13.84h-7.84c4.86-11.6 12.33-13.84 12.33-13.84-3.5-2.93-6.27-5.8-8.41-8.57-17.08-21.73 3.55-37.72 3.55-37.72 11.39-7.16 23.51-19.43 23.51-19.43-2.87 9.72-19.02 21.63-19.02 21.63Zm121.05 65.62c-.21.47-.47.99-.68 1.51h.99c-.1-.52-.21-.99-.31-1.51m41.22-58.15v.89c0-.26.05-.57.1-.84 0 0-.05-.05-.1-.05"/><path fill-rule="evenodd" d="M1059.5 950.69v.89c0-.26.05-.57.1-.84 0 0-.05-.05-.1-.05"/><path fill-rule="evenodd" d="M1128.52 1022.79c1.1-1.72 1.78-3.81 1.78-6.01 0-6.17-5.07-11.13-11.23-11.13h-.37c-5.64-6.53-9.93-16.09-13.22-26.91-9.4-30.56-10.87-71.21-11.08-81.55h5.02c3.97 0 7.21-3.24 7.21-7.21s-3.24-7.21-7.21-7.21h-.89a7.28 7.28 0 0 0 2.77-5.69c0-3.97-3.24-7.21-7.21-7.21h-.63a72 72 0 0 1 2.72-9.77c2.25-6.32 5.8-13.64 11.39-20.64h-8.88c-1.57-5.17-7.58-9.35-15.41-10.81 1.99-1.57 3.24-3.81 3.24-6.27 0-4.65-4.28-8.41-9.56-8.41s-9.51 3.76-9.51 8.41c0 2.46 1.25 4.7 3.19 6.27-4.44.84-8.36 2.56-11.13 4.86-2.14 1.72-3.6 3.76-4.23 5.96h-8.93c5.59 7 9.14 14.31 11.39 20.64a66 66 0 0 1 1.78 5.8c.37 1.41.68 2.77.94 3.97h-.57c-.1 0-.26 0-.37.05-3.87.16-6.9 3.29-6.9 7.16 0 2.3 1.1 4.39 2.82 5.69h-.89c-4.02 0-7.26 3.24-7.26 7.21s3.24 7.21 7.26 7.21h4.96c-.16 7.05-.89 28.05-4.28 50.36-.47 3.13-.99 6.32-1.57 9.51-3.29 17.71-8.41 35.16-16.46 46.13-.63.84-1.25 1.67-1.93 2.46h-1.2c-3.76 0-7.11 1.83-9.09 4.7h-.05v.05c1.99 9.09 5.69 19.49 12.64 27.95 2.93.47 5.64 1.67 7.89 3.4h82.07c5.28 0 9.56-4.23 9.56-9.51 0-4.91-3.76-8.99-8.57-9.46m-92.48 1.2h-.68c-4.13 0-7.52-3.34-7.52-7.52 0-2.51 1.25-4.75 3.24-6.11 1.2-.84 2.66-1.36 4.28-1.36h.68c-.63.37-1.25.84-1.78 1.36-1.57 1.57-2.56 3.71-2.56 6.11 0 3.24 1.78 6.01 4.34 7.52m23.46-174.13c-1.57-3.81-2.93-6.43-2.93-6.43h8.62c.94 6.48.99 12.33.78 16.67-.21 5.07-.78 8.15-.78 8.15-.31-2.51-.99-5.33-1.83-8.15-1.15-3.66-2.61-7.31-3.87-10.24Zm5.7 103.24c-.31 2.87-.68 5.59-1.04 8.2-.89 6.53-1.93 12.38-2.98 17.45-2.56 12.49-5.22 20.64-6.58 24.45-.63 1.62-.99 2.46-.99 2.46h-10.45c.57-.78 1.1-1.57 1.62-2.46 6.53-10.66 10.87-27.9 13.74-45.4.37-2.09.68-4.13.99-6.22v-.89c.05 0 .1.05.1.05 3.92-27.43 4.44-53.39 4.44-53.39h3.4c.57 21.89-.47 40.49-2.25 55.74Zm-89.76 57.26c-.52 2.51-1.2 5.12-2.09 7.78-1.04-1.62-2.46-3.03-4.07-4.18.05-.73.1-1.46.1-2.19 0-.47 0-.94-.1-1.41zm43.16 0h-.99c.21-.52.47-1.04.68-1.51.1.52.21.99.31 1.51"/><path fill-rule="evenodd" d="M1044.04 1060.72c1.04-1.62 1.67-3.6 1.67-5.69 0-2.61-.94-4.91-2.46-6.79-1.99-2.35-4.91-3.87-8.25-3.87h-.42c-.78-.84-1.52-1.72-2.25-2.61-4.44-5.59-7.68-11.81-10.03-18.08-1.67-4.49-2.87-8.99-3.71-13.32h-.99c.21-.52.47-1.04.68-1.51-.37-1.93-.63-3.81-.89-5.64v-.1h.99c3.81 0 6.9-3.08 6.9-6.9s-3.08-6.9-6.9-6.9h-.89a6.71 6.71 0 0 0 2.72-5.43c0-2.82-1.72-5.22-4.13-6.27a25.26 25.26 0 0 0 9.56-19.85c0-14-11.39-25.39-25.44-25.39-8.05 0-15.26 3.76-19.9 9.61v.05c-3.5 4.34-5.59 9.77-5.59 15.73 0 .31 0 .68.05.99.26 7.63 3.97 14.42 9.51 18.86a6.81 6.81 0 0 0-4.08 6.27c0 2.25 1.04 4.18 2.66 5.43h-.84c-3.81 0-6.95 3.08-6.95 6.9s3.13 6.9 6.95 6.9h.99v.1c-.31 2.3-.73 4.7-1.25 7.16-1.15 5.96-2.98 12.23-5.75 18.29v.1c-1.67 3.66-3.71 7.31-6.16 10.71h-.05c-1.2 1.67-2.51 3.34-3.97 4.91h-1.2c-5.9 0-10.71 4.75-10.71 10.66 0 2.14.63 4.13 1.72 5.8-4.23.78-7.47 4.49-7.47 8.99 0 5.02 4.08 9.09 9.14 9.09h85.78c5.07 0 9.14-4.07 9.14-9.09 0-4.75-3.6-8.62-8.2-9.09Zm-77.9 1.62h-.63c-3.97 0-7.21-3.19-7.21-7.16s3.24-7.21 7.21-7.21h.63c-2.46 1.46-4.13 4.13-4.13 7.21s1.67 5.75 4.13 7.16m22.52-51.98c-2.46 20.06-7.11 34.01-7.11 34.01h-6.84c6.32-10.61 9.93-25.7 11.55-34.01.73-3.66 1.04-6.01 1.04-6.01h2.04c-.21 2.09-.42 4.07-.68 6.01m10.5-60.03c-5.02 0-9.25-2.25-10.4-5.28-4.49 3.97-7.31 9.72-7.31 16.14 0 4.07 1.1 7.84 3.03 11.08-3.92-3.92-6.32-9.3-6.32-15.26 0-11.96 9.77-21.68 21.79-21.68 7.94 0 14.89 4.28 18.65 10.61-2.61-2.66-6.01-4.6-9.72-5.64.68.94 1.04 1.93 1.04 3.03 0 3.87-4.81 7-10.76 7"/><path fill-rule="evenodd" d="M1018.6 1010.36h-.99c.21-.52.47-1.04.68-1.51.1.52.21.99.31 1.51"/><path d="M591.2 1190.3c11.65-11.64 25.67-17.46 42.09-17.46 11.75 0 22.32 3.22 31.69 9.65s16.49 14.97 21.38 25.62l-23.79 6.82c-3-5.54-6.99-9.98-11.98-13.31-4.99-3.32-10.76-4.99-17.3-4.99-9.87 0-18.11 3.44-24.71 10.31-6.6 6.88-9.9 15.36-9.9 25.46s3.3 18.55 9.9 25.37 14.83 10.23 24.71 10.23c13.09 0 22.68-5.82 28.78-17.46l24.12 6.49c-4.77 10.54-11.84 18.96-21.21 25.29-9.37 6.32-19.94 9.48-31.69 9.48-16.42 0-30.44-5.79-42.09-17.38s-17.47-25.59-17.47-42.01 5.82-30.44 17.47-42.09Zm105.14-16.3h24.12v36.43c6.66-6.43 14.86-9.65 24.62-9.65s18.58 3.19 25.79 9.57 10.81 14.83 10.81 25.37v54.73h-24.12v-48.58q0-8.31-5.07-13.47c-3.38-3.44-7.51-5.16-12.4-5.16q-8.82 0-14.22 6.24c-3.61 4.15-5.41 9.29-5.41 15.39v45.58h-24.12zm107.97 39.93c8.87-8.76 19.52-13.14 31.94-13.14 10.76 0 20.3 3.44 28.62 10.31s13.58 15.52 15.8 25.95c.77 3.33 1.17 6.54 1.17 9.65s-.34 5.88-1 8.65h-66.21c1.33 4.88 3.94 8.63 7.82 11.23s8.49 3.91 13.81 3.91c8.43 0 15.36-2.49 20.8-7.48l20.96 5.98c-3.44 6.88-9.15 12.4-17.13 16.55-7.99 4.16-16.2 6.24-24.62 6.24-12.64 0-23.37-4.46-32.19-13.39s-13.23-19.6-13.23-32.03 4.49-23.57 13.48-32.44Zm10.31 23.12h42.76q-1.995-6.315-7.65-10.65c-5.655-4.335-8.32-4.32-13.64-4.32s-9.9 1.44-13.72 4.32-6.4 6.43-7.74 10.65Zm84.02-28.94c6.77-4.88 15.64-7.32 26.62-7.32 12.53 0 23.85 2.66 33.94 7.98v22.79c-13.53-6.77-24.85-10.15-33.94-10.15-3.88 0-6.82.64-8.82 1.91-2 1.28-2.99 2.86-2.99 4.75q0 1.665 1.08 2.91c.72.83 1.89 1.55 3.49 2.16q2.415.915 4.74 1.41c2.325.495 3.69.81 6.4 1.41 2.72.61 5.02 1.14 6.91 1.58 18.41 4.88 27.62 14.03 27.62 27.45 0 4.88-1.14 9.15-3.41 12.81-2.28 3.66-5.27 6.47-8.98 8.41a46.8 46.8 0 0 1-11.65 4.24c-4.05.89-8.29 1.33-12.73 1.33q-17.97 0-35.43-9.81v-23.96c4.33 3 9.84 5.88 16.55 8.65s13 4.15 18.88 4.15c7.99 0 11.98-2.1 11.98-6.32 0-2.33-1.55-4.19-4.66-5.57-3.11-1.39-8.32-2.86-15.64-4.41-10.31-2.22-17.91-5.38-22.79-9.49q-7.32-6.15-7.32-16.8c0-8.54 3.38-15.24 10.15-20.13Zm80.18 0c6.77-4.88 15.64-7.32 26.62-7.32 12.53 0 23.85 2.66 33.94 7.98v22.79c-13.53-6.77-24.85-10.15-33.94-10.15-3.88 0-6.82.64-8.82 1.91-2 1.28-2.99 2.86-2.99 4.75q0 1.665 1.08 2.91c.72.83 1.89 1.55 3.49 2.16q2.415.915 4.74 1.41c2.325.495 3.69.81 6.4 1.41 2.72.61 5.02 1.14 6.91 1.58 18.41 4.88 27.62 14.03 27.62 27.45 0 4.88-1.14 9.15-3.41 12.81-2.28 3.66-5.27 6.47-8.98 8.41a46.8 46.8 0 0 1-11.65 4.24c-4.05.89-8.29 1.33-12.73 1.33q-17.97 0-35.43-9.81v-23.96c4.33 3 9.84 5.88 16.55 8.65s13 4.15 18.88 4.15c7.99 0 11.98-2.1 11.98-6.32 0-2.33-1.55-4.19-4.66-5.57-3.11-1.39-8.32-2.86-15.64-4.41-10.31-2.22-17.91-5.38-22.79-9.49q-7.32-6.15-7.32-16.8c0-8.54 3.38-15.24 10.15-20.13Zm70.87-34.11h25.79l17.47 92.83 18.63-92.83h36.94l17.97 92.5 17.47-92.5h25.79l-24.46 116.45h-36.94l-18.3-97.99-18.97 97.99h-36.93zm173.52-3.16c2.88-2.77 6.38-4.16 10.48-4.16s7.6 1.39 10.48 4.16 4.33 6.15 4.33 10.15-1.44 7.32-4.33 9.98c-2.88 2.77-6.38 4.16-10.48 4.16s-7.6-1.35-10.48-4.08c-2.88-2.72-4.32-6.07-4.32-10.06s1.44-7.38 4.32-10.15m22.29 31.44v88.17h-24.12v-88.17zm11.65 63.22 42.59-40.76h-42.42v-22.46h72.03v23.29l-43.75 42.59h43.59v22.46h-72.03v-25.12Zm91-51.57c8.87-8.76 19.52-13.14 31.94-13.14 10.76 0 20.3 3.44 28.62 10.31s13.58 15.52 15.8 25.95c.77 3.33 1.17 6.54 1.17 9.65s-.34 5.88-1 8.65h-66.21c1.33 4.88 3.94 8.63 7.82 11.23s8.49 3.91 13.81 3.91c8.43 0 15.36-2.49 20.8-7.48l20.96 5.98c-3.44 6.88-9.15 12.4-17.13 16.55-7.99 4.16-16.2 6.24-24.62 6.24-12.64 0-23.37-4.46-32.19-13.39s-13.23-19.6-13.23-32.03 4.49-23.57 13.48-32.44Zm10.32 23.12h42.76q-1.995-6.315-7.65-10.65c-5.655-4.335-8.32-4.32-13.64-4.32s-9.9 1.44-13.72 4.32c-3.83 2.88-6.4 6.43-7.74 10.65Zm-756.06 106.62h-9.72v27.29h-5.99v-27.29h-9.71v-4.93h25.42zm44.76-4.92v32.22h-6.02v-14.08h-15.12v14.08h-6.02v-32.22h6.02v13.86h15.12v-13.86zm26.55 32.22h-6.02v-32.22h6.02zm47.72-32.22v32.22h-3.08c-.47 0-.87-.08-1.19-.23s-.63-.42-.92-.79l-16.82-21.48c.09.98.13 1.89.13 2.72v19.78h-5.28v-32.22h3.14c.25 0 .47.02.66.03.19.03.35.07.49.13.14.07.28.17.41.3.13.12.28.29.44.5l16.89 21.56c-.04-.51-.08-1.03-.11-1.53s-.04-.97-.04-1.41v-19.58zm26.54 13.51h1.4c.57 0 1.03-.08 1.41-.23q.555-.24.96-.75l8.89-11.25q.555-.705 1.17-.99c.4-.18.92-.28 1.54-.28h5.17l-10.85 13.39c-.64.82-1.3 1.39-1.98 1.73.49.18.93.44 1.33.75.39.32.77.74 1.12 1.26l11.19 15.08h-5.28q-1.065 0-1.59-.3c-.525-.3-.64-.49-.88-.88l-9.11-11.9c-.28-.4-.61-.68-.98-.84-.37-.17-.91-.24-1.6-.24H748v14.17h-6v-32.22h6v13.51Zm79.26-7.65c-.18.3-.37.53-.57.68-.2.14-.45.21-.74.21-.31 0-.65-.11-1.01-.35-.37-.23-.8-.49-1.31-.77-.5-.28-1.1-.54-1.77-.77s-1.48-.35-2.39-.35c-.83 0-1.56.1-2.18.3-.62.21-1.15.49-1.57.84-.42.36-.74.79-.95 1.29-.2.5-.31 1.04-.31 1.64 0 .76.21 1.38.64 1.89.42.5.98.94 1.68 1.3s1.49.68 2.38.96 1.81.58 2.74.91c.94.31 1.85.69 2.74 1.11s1.68.96 2.38 1.6 1.26 1.44 1.68 2.38c.42.93.64 2.07.64 3.4 0 1.46-.25 2.82-.75 4.09a9.4 9.4 0 0 1-2.18 3.32c-.96.94-2.13 1.68-3.51 2.23q-2.07.81-4.74.81-1.545 0-3.03-.3c-.99-.2-1.95-.48-2.86-.85s-1.77-.82-2.57-1.34c-.8-.51-1.51-1.1-2.14-1.73l1.76-2.88c.15-.21.34-.38.58-.52s.49-.21.76-.21c.37 0 .77.15 1.21.45.43.3.94.64 1.54 1.02.59.37 1.29.7 2.08 1.01.79.3 1.75.46 2.86.46 1.71 0 3.03-.41 3.96-1.22q1.41-1.215 1.41-3.48c0-.85-.21-1.54-.64-2.07q-.645-.81-1.68-1.35c-.7-.37-1.49-.68-2.38-.93s-1.8-.52-2.72-.82-1.83-.65-2.72-1.07-1.69-.96-2.38-1.63c-.7-.67-1.26-1.51-1.68-2.51-.43-1-.64-2.24-.64-3.71 0-1.17.23-2.32.7-3.44.47-1.11 1.15-2.1 2.04-2.96q1.335-1.29 3.3-2.07t4.5-.78c1.9 0 3.66.3 5.26.9 1.6.59 2.97 1.43 4.1 2.49l-1.49 2.84Zm55.58-5.86v32.22h-5.28v-20.81c0-.84.04-1.73.13-2.7l-9.74 18.29c-.46.88-1.17 1.31-2.11 1.31h-.85c-.95 0-1.65-.44-2.11-1.31l-9.85-18.35c.04.49.08.97.11 1.44.03.48.04.91.04 1.31v20.81h-5.28v-32.22h4.53c.27 0 .5 0 .69.03.2.02.37.05.53.11.16.05.3.16.42.29s.25.31.37.53l9.65 17.89c.25.48.49.97.7 1.47s.43 1.03.64 1.56c.2-.55.42-1.08.64-1.59s.46-1 .71-1.48l9.51-17.85c.12-.22.25-.4.38-.53s.28-.23.44-.29.33-.1.52-.11q.3-.03.69-.03h4.52Zm48.15 32.22h-4.63c-.52 0-.94-.13-1.27-.39s-.57-.58-.74-.97l-2.41-6.57h-13.35l-2.41 6.57q-.18.51-.69.93c-.34.29-.77.43-1.27.43h-4.68l12.68-32.22h6.1l12.65 32.22Zm-10.59-12.17-3.92-10.71c-.2-.48-.4-1.04-.6-1.7-.21-.65-.42-1.36-.63-2.11q-.285 1.14-.6 2.13c-.21.66-.41 1.24-.6 1.72l-3.9 10.67zm52.44 12.17h-5.41c-1.03 0-1.77-.4-2.23-1.2l-6.77-10.32c-.25-.38-.53-.65-.84-.82s-.75-.24-1.35-.24h-2.56v12.58h-6v-32.22h9.82c2.18 0 4.06.23 5.63.68s2.85 1.09 3.86 1.91c1 .82 1.74 1.79 2.21 2.93.47 1.13.71 2.38.71 3.75 0 1.09-.16 2.11-.48 3.07a9.1 9.1 0 0 1-1.38 2.64 9.4 9.4 0 0 1-2.23 2.07c-.89.59-1.89 1.06-3.02 1.4.39.23.74.49 1.07.79s.62.66.89 1.08l8.07 11.9Zm-15.41-16.89c1.13 0 2.11-.15 2.95-.43.84-.29 1.53-.67 2.07-1.17s.95-1.09 1.21-1.77c.27-.69.4-1.44.4-2.25 0-1.63-.54-2.89-1.62-3.76-1.07-.88-2.72-1.31-4.93-1.31h-3.83v10.7h3.74Zm53.94-10.41h-9.72v27.29h-5.99v-27.29h-9.71v-4.93h25.42zm13.65 32.75c-.27-.22-.4-.5-.4-.83 0-.11.04-.25.12-.4s.18-.28.3-.4c.17-.17.37-.39.6-.65s.47-.56.71-.9c.24-.33.46-.7.66-1.09s.35-.81.46-1.26c-.47 0-.91-.08-1.29-.25s-.71-.41-.99-.7c-.28-.3-.49-.64-.65-1.04s-.23-.84-.23-1.31c0-.42.08-.81.23-1.17.16-.36.37-.68.66-.96.28-.27.62-.49 1.03-.64.4-.16.84-.23 1.31-.23.56 0 1.06.1 1.48.3s.77.47 1.05.83c.27.35.48.75.62 1.2q.21.675.21 1.44c0 .71-.11 1.46-.32 2.25-.22.79-.53 1.58-.95 2.37-.42.78-.93 1.55-1.55 2.3-.62.74-1.32 1.42-2.11 2.05l-.96-.87Zm59.42-37.67c2.15 0 4.02.25 5.59.76 1.58.5 2.87 1.21 3.9 2.11a8.5 8.5 0 0 1 2.28 3.25c.5 1.26.74 2.65.74 4.14s-.26 2.99-.78 4.29a8.8 8.8 0 0 1-2.34 3.35c-1.04.94-2.34 1.67-3.91 2.18q-2.355.78-5.49.78h-4.48v11.34h-6v-32.22h10.47Zm0 16.19c1.1 0 2.05-.13 2.87-.41s1.5-.67 2.04-1.18.94-1.13 1.21-1.87c.27-.73.4-1.55.4-2.46 0-.86-.13-1.64-.4-2.33-.27-.7-.67-1.3-1.21-1.78-.54-.5-1.21-.87-2.03-1.12-.81-.26-1.78-.39-2.89-.39h-4.48v11.56h4.48Zm49.34 11.08v4.94h-18.87v-32.22h6v27.27h12.88Zm45.25 4.95h-4.63c-.52 0-.94-.13-1.27-.39s-.57-.58-.74-.97l-2.41-6.57h-13.35l-2.41 6.57q-.18.51-.69.93c-.34.29-.77.43-1.27.43h-4.68l12.68-32.22h6.1l12.65 32.22Zm-10.59-12.17-3.92-10.71c-.2-.48-.4-1.04-.6-1.7-.21-.65-.42-1.36-.63-2.11q-.285 1.14-.6 2.13c-.315.99-.41 1.24-.6 1.72l-3.9 10.67zm37.79-.31v12.48h-5.97v-12.48l-11.74-19.74h5.28c.52 0 .93.13 1.24.38s.56.57.77.96l5.88 10.76c.34.64.64 1.24.91 1.81.26.57.49 1.12.7 1.69.19-.57.42-1.12.67-1.69s.54-1.17.87-1.81l5.86-10.76c.16-.33.41-.64.74-.91.33-.29.74-.43 1.25-.43h5.3l-11.74 19.74Zm93.34-19.74-10 32.22h-5.41l-7.04-22.01c-.19-.54-.37-1.19-.54-1.97q-.135.555-.27 1.05c-.09.32-.19.63-.29.91l-7.11 22.01h-5.43l-9.98-32.22h5.01c.52 0 .95.12 1.31.37.35.25.58.58.7.99l5.48 19.28c.12.47.23.99.35 1.55.11.56.23 1.14.34 1.75.12-.63.25-1.21.39-1.77.14-.55.29-1.06.46-1.53l6.33-19.28c.12-.34.35-.65.7-.93.35-.29.77-.43 1.28-.43h1.76c.52 0 .94.13 1.27.38s.57.57.74.97l6.3 19.28c.31.92.59 1.98.84 3.19.2-1.17.41-2.24.65-3.19l5.48-19.28c.09-.37.32-.69.68-.96.37-.26.8-.4 1.31-.4h4.7Zm23.35 32.22h-6.02v-32.22h6.02zm37.72-26.36c-.18.3-.37.53-.57.68-.2.14-.45.21-.74.21-.31 0-.65-.11-1.01-.35-.37-.23-.8-.49-1.31-.77-.5-.28-1.1-.54-1.77-.77s-1.48-.35-2.39-.35c-.83 0-1.56.1-2.18.3-.62.21-1.15.49-1.57.84-.42.36-.74.79-.95 1.29-.2.5-.31 1.04-.31 1.64 0 .76.21 1.38.64 1.89.42.5.98.94 1.68 1.3s1.49.68 2.38.96 1.81.58 2.74.91c.94.31 1.85.69 2.74 1.11s1.68.96 2.38 1.6 1.26 1.44 1.68 2.38c.42.93.64 2.07.64 3.4 0 1.46-.25 2.82-.75 4.09a9.4 9.4 0 0 1-2.18 3.32c-.96.94-2.13 1.68-3.51 2.23q-2.07.81-4.74.81-1.545 0-3.03-.3c-.99-.2-1.95-.48-2.86-.85s-1.77-.82-2.57-1.34c-.8-.51-1.51-1.1-2.14-1.73l1.76-2.88c.15-.21.34-.38.58-.52s.49-.21.76-.21c.37 0 .77.15 1.21.45.43.3.94.64 1.54 1.02.59.37 1.29.7 2.08 1.01.79.3 1.75.46 2.86.46 1.71 0 3.03-.41 3.96-1.22q1.41-1.215 1.41-3.48c0-.85-.21-1.54-.64-2.07q-.645-.81-1.68-1.35c-.7-.37-1.49-.68-2.38-.93s-1.8-.52-2.72-.82-1.83-.65-2.72-1.07-1.69-.96-2.38-1.63c-.7-.67-1.26-1.51-1.68-2.51-.43-1-.64-2.24-.64-3.71 0-1.17.23-2.32.7-3.44.47-1.11 1.15-2.1 2.04-2.96q1.335-1.29 3.3-2.07t4.5-.78c1.9 0 3.66.3 5.26.9 1.6.59 2.97 1.43 4.1 2.49l-1.49 2.84Zm26.66-1.09v8.94h11.27v4.61h-11.27v9.11h14.3v4.79h-20.32v-32.22h20.32v4.77zm32.22 24.42c0-.46.09-.9.26-1.31s.41-.77.71-1.07.67-.54 1.08-.71c.42-.17.86-.27 1.34-.27s.9.1 1.32.27c.41.17.77.42 1.08.71s.54.65.72 1.07.27.85.27 1.31-.09.91-.27 1.32-.42.77-.72 1.06a3.47 3.47 0 0 1-2.4.96c-.46 0-.92-.09-1.34-.26-.41-.17-.77-.4-1.08-.7s-.54-.65-.71-1.06-.26-.85-.26-1.32m6.04-29.19v12.75c0 1.35-.07 2.67-.2 3.98-.13 1.3-.3 2.67-.51 4.12h-3.74c-.21-1.45-.38-2.83-.51-4.12-.13-1.31-.2-2.63-.2-3.98v-12.75h5.17Z"/></svg>